<svg width="214" height="58" viewBox="0 0 214 58" fill="none" xmlns="http://www.w3.org/2000/svg">
<circle cx="3" cy="3" r="3" fill="#0E1947"/>
<circle cx="29" cy="3" r="3" fill="#0E1947"/>
<circle cx="55" cy="3" r="3" fill="#0E1947"/>
<circle cx="81" cy="3" r="3" fill="#0E1947"/>
<circle cx="107" cy="3" r="3" fill="#0E1947"/>
<circle cx="133" cy="3" r="3" fill="#0E1947"/>
<circle cx="159" cy="3" r="3" fill="#0E1947"/>
<circle cx="185" cy="3" r="3" fill="#0E1947"/>
<circle cx="211" cy="3" r="3" fill="#0E1947"/>
<circle cx="3" cy="29" r="3" fill="#0E1947"/>
<circle cx="29" cy="29" r="3" fill="#0E1947"/>
<circle cx="55" cy="29" r="3" fill="#0E1947"/>
<circle cx="81" cy="29" r="3" fill="#0E1947"/>
<circle cx="107" cy="29" r="3" fill="#0E1947"/>
<circle cx="133" cy="29" r="3" fill="#0E1947"/>
<circle cx="159" cy="29" r="3" fill="#0E1947"/>
<circle cx="185" cy="29" r="3" fill="#0E1947"/>
<circle cx="211" cy="29" r="3" fill="#0E1947"/>
<circle cx="3" cy="55" r="3" fill="#0E1947"/>
<circle cx="29" cy="55" r="3" fill="#0E1947"/>
<circle cx="55" cy="55" r="3" fill="#0E1947"/>
<circle cx="81" cy="55" r="3" fill="#0E1947"/>
<circle cx="107" cy="55" r="3" fill="#0E1947"/>
<circle cx="133" cy="55" r="3" fill="#0E1947"/>
<circle cx="159" cy="55" r="3" fill="#0E1947"/>
<circle cx="185" cy="55" r="3" fill="#0E1947"/>
<circle cx="211" cy="55" r="3" fill="#0E1947"/>
</svg>
