<svg width="214" height="58" viewBox="0 0 214 58" fill="none" xmlns="http://www.w3.org/2000/svg">
<g clip-path="url(#clip0_31_1482)">
<path d="M-32 57.917L138.878 -238.052" stroke="#0E1947" stroke-width="2"/>
<path d="M-18.923 65.4668L151.955 -230.502" stroke="#0E1947" stroke-width="2"/>
<path d="M-5.84607 73.0171L165.031 -222.951" stroke="#0E1947" stroke-width="2"/>
<path d="M7.23096 80.5669L178.108 -215.402" stroke="#0E1947" stroke-width="2"/>
<path d="M20.308 88.1172L191.186 -207.851" stroke="#0E1947" stroke-width="2"/>
<path d="M33.3849 95.667L204.262 -200.302" stroke="#0E1947" stroke-width="2"/>
<path d="M46.4619 103.217L217.339 -192.752" stroke="#0E1947" stroke-width="2"/>
<path d="M59.5389 110.767L230.416 -185.201" stroke="#0E1947" stroke-width="2"/>
<path d="M72.6158 118.317L243.493 -177.652" stroke="#0E1947" stroke-width="2"/>
<path d="M85.6929 125.867L256.57 -170.101" stroke="#0E1947" stroke-width="2"/>
<path d="M98.7698 133.417L269.647 -162.552" stroke="#0E1947" stroke-width="2"/>
<path d="M111.847 140.967L282.724 -155.002" stroke="#0E1947" stroke-width="2"/>
<path d="M124.924 148.517L295.801 -147.451" stroke="#0E1947" stroke-width="2"/>
<path d="M138.001 156.067L308.878 -139.902" stroke="#0E1947" stroke-width="2"/>
<path d="M151.078 163.617L321.955 -132.351" stroke="#0E1947" stroke-width="2"/>
<path d="M164.155 171.167L335.032 -124.802" stroke="#0E1947" stroke-width="2"/>
<path d="M177.232 178.717L348.109 -117.252" stroke="#0E1947" stroke-width="2"/>
<path d="M190.309 186.267L361.186 -109.701" stroke="#0E1947" stroke-width="2"/>
<path d="M203.386 193.817L374.263 -102.152" stroke="#0E1947" stroke-width="2"/>
</g>
<defs>
<clipPath id="clip0_31_1482">
<rect width="214" height="58" fill="white" transform="matrix(1 0 0 -1 0 58)"/>
</clipPath>
</defs>
</svg>
